<?xml version="1.0" encoding="UTF-8" standalone="no"?>
<!DOCTYPE svg PUBLIC "-//W3C//DTD SVG 1.1//EN" "http://www.w3.org/Graphics/SVG/1.1/DTD/svg11.dtd">
<svg width="100%" height="100%" viewBox="0 0 258 30" version="1.1" xmlns="http://www.w3.org/2000/svg" xmlns:xlink="http://www.w3.org/1999/xlink" xml:space="preserve" style="fill-rule:evenodd;clip-rule:evenodd;stroke-linejoin:round;stroke-miterlimit:1.41421;">
    <path d="M11.9,6.7C10.9,5.4 9.9,4.7 8.7,4.7C7.9,4.7 7.1,5 6.5,5.5C5.9,6 5.5,6.8 5.5,7.7C5.5,8.5 5.8,9.2 6.3,9.9C6.8,10.6 7.8,11.4 9.3,12.4C10.5,13.2 11.4,14 12.3,14.7C13.1,15.4 13.8,16.1 14.3,16.9C14.8,17.6 15.2,18.4 15.4,19.1C15.6,19.9 15.7,20.7 15.7,21.6C15.7,22.7 15.5,23.7 15.1,24.6C14.7,25.5 14.1,26.4 13.4,27C12.7,27.7 11.9,28.2 10.9,28.6C9.9,29 8.9,29.2 7.9,29.2C6.4,29.2 5.1,28.9 3.8,28.3C2.5,27.7 1.4,26.7 0.4,25.5L4,22.4C4.5,23.3 5.1,24 5.7,24.4C6.3,24.8 7,25 7.8,25C8.3,25 8.7,24.9 9.2,24.7C9.6,24.5 10,24.3 10.3,23.9C10.6,23.6 10.8,23.2 11,22.8C11.2,22.4 11.3,21.9 11.3,21.4C11.3,20.6 11,19.8 10.4,19C9.8,18.2 8.7,17.2 7.1,16C5,14.5 3.5,13.1 2.6,11.8C1.7,10.5 1.3,9.1 1.3,7.6C1.3,6.6 1.5,5.7 1.9,4.8C2.3,3.9 2.8,3.1 3.5,2.5C3.9,2 4.7,1.4 5.7,1C6.6,0.6 7.6,0.4 8.7,0.4C9.9,0.4 11.1,0.7 12.2,1.2C13.3,1.7 14.4,2.6 15.4,3.9L11.9,6.7Z" style="fill:white;fill-rule:nonzero;"/>
    <path d="M21.1,29L21.1,0.7L25,0.7L30.9,14.8L36.9,0.7L40.7,0.7L40.7,29L36.6,29L36.6,11.6L30.9,24.3L25.3,11.6L25.3,29L21.1,29Z" style="fill:white;fill-rule:nonzero;"/>
    <path d="M45.7,29C45.9,27.8 46.2,26.5 46.5,25.1C46.8,23.9 47.1,22.4 47.5,20.7C47.9,19 48.3,17.1 48.8,15C49.3,13.1 49.7,11.2 50.1,9.5C50.5,7.8 50.9,6.3 51.3,5C51.7,3.5 52.1,2.1 52.5,0.8L56.9,0.8C57.3,2.1 57.7,3.5 58.1,5C58.4,6.3 58.8,7.8 59.3,9.5C59.7,11.2 60.2,13 60.6,15C61.1,17.1 61.5,19 61.9,20.7C62.3,22.4 62.6,23.9 62.9,25.1C63.2,26.6 63.5,27.9 63.8,29L59.1,29C59,28.6 58.9,28.1 58.8,27.6C58.7,27.1 58.6,26.6 58.5,26C58.4,25.4 58.2,24.7 58.1,23.9L51.3,23.9C51.1,24.7 51,25.4 50.9,26C50.8,26.6 50.7,27.1 50.6,27.6C50.5,28.1 50.4,28.6 50.4,29L45.7,29ZM57.3,19.8C56.9,17.9 56.6,16.2 56.3,14.7C56,13.2 55.7,11.8 55.5,10.7C55.2,9.4 54.9,8.2 54.7,7.1C54.5,8.2 54.2,9.4 53.9,10.7C53.7,11.8 53.4,13.2 53.1,14.7C52.8,16.2 52.5,18 52.1,19.8L57.3,19.8Z" style="fill:white;fill-rule:nonzero;"/>
    <path d="M72.9,29L68.6,29L68.6,0.9C69.1,0.8 69.7,0.7 70.4,0.6C71.1,0.5 71.9,0.5 72.8,0.5C74.4,0.5 75.9,0.7 77.4,1.2C78.8,1.7 80.1,2.3 81.1,3.2C82.2,4.1 83,5.2 83.6,6.4C84.2,7.7 84.5,9.1 84.5,10.8C84.5,12.4 84.1,14 83.4,15.5C82.6,17 81.6,18.2 80.2,19.1L84.6,29L79.7,29L76.2,20.6C75.7,20.8 75.2,20.9 74.6,20.9C74,21 73.5,21 72.8,21L72.8,29L72.9,29ZM80.3,10.6C80.3,9.9 80.2,9.2 79.9,8.5C79.6,7.8 79.2,7.2 78.6,6.6C78,6 77.4,5.6 76.6,5.3C75.8,5 74.9,4.8 73.9,4.8L73.5,4.8L73.1,4.8L73.1,16.8L73.3,16.8C75.7,16.8 77.4,16.2 78.6,15.1C79.7,14 80.3,12.5 80.3,10.6Z" style="fill:white;fill-rule:nonzero;"/>
    <path d="M103.4,0.7L103.4,4.9L97.6,4.9L97.6,29L93.2,29L93.2,4.9L87.4,4.9L87.4,0.7L103.4,0.7Z" style="fill:white;fill-rule:nonzero;"/>
    <path d="M121.9,0.7L121.9,4.9L112.3,4.9L112.3,13.7L121.4,13.7L121.4,18L112.3,18L112.3,24.7L121.9,24.7L121.9,29L108,29L108,0.7L121.9,0.7Z" style="fill:white;fill-rule:nonzero;"/>
    <path d="M131.8,29L127.5,29L127.5,0.9C128,0.8 128.6,0.7 129.3,0.6C130,0.5 130.8,0.5 131.7,0.5C133.3,0.5 134.8,0.7 136.3,1.2C137.7,1.7 139,2.3 140,3.2C141.1,4.1 141.9,5.2 142.5,6.4C143.1,7.7 143.4,9.1 143.4,10.8C143.4,12.4 143,14 142.3,15.5C141.5,17 140.5,18.2 139.1,19.1L143.5,29L138.6,29L135.1,20.6C134.6,20.8 134.1,20.9 133.5,20.9C132.9,21 132.4,21 131.7,21L131.7,29L131.8,29ZM139.2,10.6C139.2,9.9 139.1,9.2 138.8,8.5C138.5,7.8 138.1,7.2 137.5,6.6C136.9,6 136.3,5.6 135.5,5.3C134.7,5 133.8,4.8 132.8,4.8L132.4,4.8L132,4.8L132,16.8L132.2,16.8C134.6,16.8 136.3,16.2 137.5,15.1C138.6,14 139.2,12.5 139.2,10.6Z" style="fill:white;fill-rule:nonzero;"/>
    <path d="M162.3,0.7L162.3,4.9L156.5,4.9L156.5,29L152.1,29L152.1,4.9L146.3,4.9L146.3,0.7L162.3,0.7Z" style="fill:rgb(0,137,187);fill-rule:nonzero;"/>
    <path d="M170.9,29L166.6,29L166.6,0.9C167.1,0.8 167.7,0.7 168.4,0.6C169.1,0.5 169.9,0.5 170.8,0.5C172.4,0.5 173.9,0.7 175.4,1.2C176.8,1.7 178.1,2.3 179.1,3.2C180.2,4.1 181,5.2 181.6,6.4C182.2,7.7 182.5,9.1 182.5,10.8C182.5,12.4 182.1,14 181.4,15.5C180.6,17 179.6,18.2 178.2,19.1L182.6,29L177.7,29L174.2,20.6C173.7,20.8 173.2,20.9 172.6,20.9C172,21 171.5,21 170.8,21L170.8,29L170.9,29ZM178.3,10.6C178.3,9.9 178.2,9.2 177.9,8.5C177.6,7.8 177.2,7.2 176.6,6.6C176,6 175.4,5.6 174.6,5.3C173.8,5 172.9,4.8 171.9,4.8L171.5,4.8L171.1,4.8L171.1,16.8L171.3,16.8C173.7,16.8 175.4,16.2 176.6,15.1C177.7,14 178.3,12.5 178.3,10.6Z" style="fill:rgb(0,137,187);fill-rule:nonzero;"/>
    <path d="M185.4,29C185.6,27.8 185.9,26.5 186.2,25.1C186.5,23.9 186.8,22.4 187.2,20.7C187.6,19 188,17.1 188.5,15C189,13.1 189.4,11.2 189.8,9.5C190.2,7.8 190.6,6.3 191,5C191.4,3.5 191.8,2.1 192.2,0.8L196.6,0.8C197,2.1 197.4,3.5 197.8,5C198.2,6.3 198.5,7.8 199,9.5C199.4,11.2 199.9,13 200.3,15C200.8,17.1 201.2,19 201.6,20.7C202,22.4 202.3,23.9 202.6,25.1C202.9,26.6 203.2,27.9 203.5,29L198.8,29C198.7,28.6 198.6,28.1 198.5,27.6C198.4,27.1 198.3,26.6 198.2,26C198.1,25.4 197.9,24.7 197.8,23.9L191,23.9C190.8,24.7 190.7,25.4 190.6,26C190.5,26.6 190.4,27.1 190.3,27.6C190.2,28.1 190.1,28.6 190.1,29L185.4,29ZM197.1,19.8C196.7,17.9 196.4,16.2 196.1,14.7C195.8,13.2 195.5,11.8 195.3,10.7C195,9.4 194.7,8.2 194.5,7.1C194.3,8.2 194,9.4 193.7,10.7C193.5,11.8 193.2,13.2 192.9,14.7C192.6,16.2 192.3,18 191.9,19.8L197.1,19.8Z" style="fill:rgb(0,137,187);fill-rule:nonzero;"/>
    <path d="M222,0.7L215.3,29L210,29L203.4,0.7L208.2,0.7L212.7,23.7L217.2,0.7L222,0.7Z" style="fill:rgb(0,137,187);fill-rule:nonzero;"/>
    <path d="M240,0.7L240,4.9L230.4,4.9L230.4,13.7L239.4,13.7L239.4,18L230.4,18L230.4,24.7L240,24.7L240,29L226.1,29L226.1,0.7L240,0.7Z" style="fill:rgb(0,137,187);fill-rule:nonzero;"/>
    <path d="M257.5,24.7L257.5,29L244.8,29L244.8,0.7L249.2,0.7L249.2,24.7L257.5,24.7Z" style="fill:rgb(0,137,187);fill-rule:nonzero;"/>
</svg>
