<?xml version="1.0" standalone="no"?>
<!DOCTYPE svg PUBLIC "-//W3C//DTD SVG 1.1//EN" "http://www.w3.org/Graphics/SVG/1.1/DTD/svg11.dtd">
<svg width="1490px" height="1490px" version="1.1" xmlns="http://www.w3.org/2000/svg" xmlns:xlink="http://www.w3.org/1999/xlink" xml:space="preserve" style="fill-rule:evenodd;clip-rule:evenodd;stroke-linejoin:round;stroke-miterlimit:1.41421;">
    <g>
        <g id="Layer1">
            <g>
                <g>
                    <path d="M927.264,879.871C943.205,933.183 912.944,989.359 859.563,1005.32C806.234,1021.29 750.041,991.032 734.082,937.703C718.088,884.323 748.402,828.147 801.714,812.136C855.112,796.229 911.253,826.456 927.264,879.871" style="fill:white;fill-rule:nonzero;stroke-width:1px;stroke:white;"/>
                </g>
                <g>
                    <path d="M1021.51,1130.13L1007.64,1473.61L789.391,1200.99L788.304,1200.7C772.12,1202.06 755.868,1202.75 739.581,1202.75C480.769,1202.75 248.199,1029.62 173.977,781.831C128.86,631.04 145.233,471.553 220.111,332.65C295.006,193.729 419.297,92.3673 570.053,47.2508C625.142,30.7397 681.991,22.4065 739.046,22.4065C997.876,22.4065 1230.41,195.454 1304.65,443.276C1386,715.131 1261.31,1000.51 1021.34,1130.96L1021.51,1130.13ZM739.081,166.866C696.017,166.866 653.092,173.18 611.461,185.62C497.643,219.746 403.786,296.246 347.231,401.161C290.676,506.059 278.306,626.537 312.397,740.389C368.418,927.515 544.07,1058.22 739.495,1058.22C782.593,1058.22 825.553,1051.89 867.133,1039.45C980.95,1005.36 1074.84,928.826 1131.38,823.928C1187.93,719.03 1200.32,598.518 1166.23,484.735C1110.23,297.626 934.557,166.866 739.081,166.866" style="fill:white;fill-rule:nonzero;stroke-width:1px;stroke:white;"/>
                </g>
            </g>
        </g>
    </g>
</svg>
