<?xml version="1.0" standalone="no"?>
<!DOCTYPE svg PUBLIC "-//W3C//DTD SVG 1.1//EN" "http://www.w3.org/Graphics/SVG/1.1/DTD/svg11.dtd">
<svg width="2560px" height="660px" version="1.1" xmlns="http://www.w3.org/2000/svg" xmlns:xlink="http://www.w3.org/1999/xlink" xml:space="preserve" style="fill-rule:evenodd;clip-rule:evenodd;stroke-linejoin:round;stroke-miterlimit:1.41421;">
    <g>
        <g id="Layer1">
            <g>
                <path d="M1275.39,387.906C1282.39,411.303 1269.11,435.969 1245.67,442.973C1222.26,449.99 1197.58,436.713 1190.58,413.291C1183.55,389.855 1196.87,365.188 1220.28,358.172C1243.71,351.194 1268.37,364.457 1275.39,387.906" style="fill:white;fill-rule:nonzero;stroke-width:1px;stroke:white;"/>
            </g>
            <g>
                <path d="M1318.07,498.202L1311.97,649L1216.16,529.309L1215.69,529.18C1208.58,529.783 1201.43,530.091 1194.3,530.091C1080.67,530.091 978.561,454.076 945.979,345.301C926.174,279.087 933.357,209.075 966.234,148.094C999.11,87.1134 1053.69,42.6027 1119.87,22.7973C1144.06,15.5499 1169.01,11.8941 1194.05,11.8941C1307.68,11.8941 1409.78,87.8573 1442.36,196.658C1478.09,316.016 1423.35,441.301 1318,498.562L1318.07,498.202ZM1194.07,75.3122C1175.16,75.3122 1156.32,78.0829 1138.04,83.5474C1088.07,98.5168 1046.87,132.111 1022.05,178.161C997.211,224.224 991.773,277.111 1006.74,327.099C1031.33,409.245 1108.46,466.634 1194.26,466.634C1213.17,466.634 1232.03,463.851 1250.29,458.386C1300.26,443.417 1341.47,409.822 1366.3,363.772C1391.12,317.722 1396.56,264.823 1381.59,214.86C1357,132.714 1279.89,75.3122 1194.07,75.3122" style="fill:white;fill-rule:nonzero;stroke-width:1px;stroke:white;"/>
            </g>
            <g>
                <path d="M736.987,504.353L503.607,504.353C498.181,504.353 493.769,499.953 493.769,494.502L493.769,40.0436C493.769,34.6048 498.181,30.2051 503.607,30.2051L549.067,30.2051C554.493,30.2051 558.893,34.6048 558.893,40.0436L558.893,443.526L736.987,443.526C742.413,443.526 746.825,447.926 746.825,453.365L746.825,494.502C746.825,499.953 742.413,504.353 736.987,504.353" style="fill:white;fill-rule:nonzero;stroke-width:1px;stroke:white;"/>
            </g>
            <g>
                <path d="M862.917,504.353L817.458,504.353C812.019,504.353 807.619,499.953 807.619,494.502L807.619,40.0436C807.619,34.6048 812.019,30.2051 817.458,30.2051L862.917,30.2051C868.343,30.2051 872.756,34.6048 872.756,40.0436L872.756,494.502C872.756,499.953 868.343,504.353 862.917,504.353" style="fill:white;fill-rule:nonzero;stroke-width:1px;stroke:white;"/>
            </g>
            <g>
                <path d="M1684.68,512.333C1660.08,512.333 1576.76,505.804 1538.17,421.849C1526.35,396.22 1520.09,362.1 1520.09,323.156L1520.09,40.0449C1520.09,34.6061 1524.5,30.2064 1529.94,30.2064L1575.38,30.2064C1580.79,30.2064 1585.2,34.6061 1585.2,40.0449L1585.2,323.156C1585.2,356.533 1590.23,384.098 1599.35,400.735C1617.62,434.446 1646.34,451.519 1684.68,451.519C1723.04,451.519 1751.75,434.446 1770.01,400.774C1779.14,384.111 1784.15,356.558 1784.15,323.156L1784.15,40.0449C1784.15,34.6061 1788.57,30.2064 1793.99,30.2064L1839.44,30.2064C1844.88,30.2064 1849.29,34.6061 1849.29,40.0449L1849.29,323.156C1849.29,362.1 1843.03,396.22 1831.2,421.862C1792.62,505.804 1709.29,512.333 1684.68,512.333" style="fill:white;fill-rule:nonzero;stroke-width:1px;stroke:white;"/>
            </g>
            <g>
                <path d="M2197.52,504.353L1948.8,504.353C1943.37,504.353 1938.96,499.953 1938.96,494.502L1938.96,40.0436C1938.96,34.6048 1943.37,30.2051 1948.8,30.2051L2197.52,30.2051C2202.96,30.2051 2207.37,34.6048 2207.37,40.0436L2207.37,81.2064C2207.37,86.6452 2202.96,91.0321 2197.52,91.0321L2004.1,91.0321L2004.1,234.711L2190.78,234.711C2196.2,234.711 2200.61,239.11 2200.61,244.549L2200.61,285.712C2200.61,291.151 2196.2,295.563 2190.78,295.563L2004.1,295.563L2004.1,443.526L2197.52,443.526C2202.96,443.526 2207.37,447.926 2207.37,453.365L2207.37,494.502C2207.37,499.953 2202.96,504.353 2197.52,504.353" style="fill:white;fill-rule:nonzero;stroke-width:1px;stroke:white;"/>
            </g>
            <g>
                <path d="M2408.22,512.333C2337.31,512.333 2260.16,467.027 2258.32,367.551C2258.29,364.922 2259.31,362.369 2261.14,360.483C2263,358.598 2265.53,357.533 2268.17,357.533L2313.62,357.533C2318.89,357.533 2323.22,361.689 2323.45,366.948C2325.7,419.104 2358.18,451.519 2408.22,451.519C2448.35,451.519 2489.86,421.426 2489.86,371.079C2489.86,311.355 2431.22,294.012 2399.71,284.7L2388.64,281.429C2347.4,269.41 2270.62,247.039 2270.62,154.285C2270.62,79.0014 2329.78,22.2278 2408.22,22.2278C2484.33,22.2278 2543.96,80.7587 2543.96,155.516C2543.96,160.942 2539.54,165.342 2534.1,165.342L2488.66,165.342C2483.23,165.342 2478.82,160.942 2478.82,155.516C2478.82,116.239 2446.48,83.0548 2408.22,83.0548C2361.15,83.0548 2335.77,118.804 2335.77,152.438C2335.77,197.051 2370.99,209.391 2433.26,227.349L2436.73,228.35C2543.48,257.095 2555.01,336.278 2555,369.001C2555,449.479 2490.53,512.333 2408.22,512.333" style="fill:white;fill-rule:nonzero;stroke-width:1px;stroke:white;"/>
            </g>
            <g>
                <path d="M252.644,517.43C116.084,517.43 5,406.346 5,269.812C5,133.279 116.084,22.1944 252.644,22.1944C318.756,22.1944 380.942,47.926 427.685,94.6815L434.047,101.018C435.894,102.891 436.933,105.405 436.921,108.035C436.895,110.664 435.843,113.166 433.957,115.013L401.235,147.068C397.387,150.865 391.217,150.814 387.407,147.017L381.186,140.821C346.719,106.354 300.926,87.3827 252.22,87.3827C151.629,87.3827 69.7906,169.221 69.7906,269.812C69.7906,370.404 151.629,452.242 252.22,452.242C300.951,452.242 346.77,433.245 381.212,398.791L387.433,392.582C391.268,388.76 397.425,388.734 401.273,392.505L434.022,424.548C435.894,426.382 436.959,428.909 436.972,431.526C436.985,434.156 435.946,436.683 434.099,438.543L427.749,444.879C380.968,491.66 318.781,517.43 252.644,517.43" style="fill:white;fill-rule:nonzero;stroke-width:1px;stroke:white;"/>
            </g>
        </g>
    </g>
</svg>
