<?xml version="1.0" encoding="UTF-8" standalone="no"?>
<!DOCTYPE svg PUBLIC "-//W3C//DTD SVG 1.1//EN" "http://www.w3.org/Graphics/SVG/1.1/DTD/svg11.dtd">
<svg width="100%" height="100%" viewBox="0 0 258 55" version="1.1" xmlns="http://www.w3.org/2000/svg" xmlns:xlink="http://www.w3.org/1999/xlink" xml:space="preserve" style="fill-rule:evenodd;clip-rule:evenodd;stroke-linejoin:round;stroke-miterlimit:1.41421;">
    <g transform="matrix(1,0,0,1,0,0.5)">
        <path d="M11.9,6.7C10.9,5.4 9.9,4.7 8.7,4.7C7.9,4.7 7.1,5 6.5,5.5C5.9,6 5.5,6.8 5.5,7.7C5.5,8.5 5.8,9.2 6.3,9.9C6.8,10.6 7.8,11.4 9.3,12.4C10.5,13.2 11.4,14 12.3,14.7C13.1,15.4 13.8,16.1 14.3,16.9C14.8,17.6 15.2,18.4 15.4,19.1C15.6,19.9 15.7,20.7 15.7,21.6C15.7,22.7 15.5,23.7 15.1,24.6C14.7,25.5 14.1,26.4 13.4,27C12.7,27.7 11.9,28.2 10.9,28.6C9.9,29 8.9,29.2 7.9,29.2C6.4,29.2 5.1,28.9 3.8,28.3C2.5,27.7 1.4,26.7 0.4,25.5L4,22.4C4.5,23.3 5.1,24 5.7,24.4C6.3,24.8 7,25 7.8,25C8.3,25 8.7,24.9 9.2,24.7C9.6,24.5 10,24.3 10.3,23.9C10.6,23.6 10.8,23.2 11,22.8C11.2,22.4 11.3,21.9 11.3,21.4C11.3,20.6 11,19.8 10.4,19C9.8,18.2 8.7,17.2 7.1,16C5,14.5 3.5,13.1 2.6,11.8C1.7,10.5 1.3,9.1 1.3,7.6C1.3,6.6 1.5,5.7 1.9,4.8C2.3,3.9 2.8,3.1 3.5,2.5C3.9,2 4.7,1.4 5.7,1C6.6,0.6 7.6,0.4 8.7,0.4C9.9,0.4 11.1,0.7 12.2,1.2C13.3,1.7 14.4,2.6 15.4,3.9L11.9,6.7Z" style="fill:white;fill-rule:nonzero;"/>
    </g>
    <g transform="matrix(1,0,0,1,0,0.5)">
        <path d="M21.1,29L21.1,0.7L25,0.7L30.9,14.8L36.9,0.7L40.7,0.7L40.7,29L36.6,29L36.6,11.6L30.9,24.3L25.3,11.6L25.3,29L21.1,29Z" style="fill:white;fill-rule:nonzero;"/>
    </g>
    <g transform="matrix(1,0,0,1,0,0.5)">
        <path d="M45.7,29C45.9,27.8 46.2,26.5 46.5,25.1C46.8,23.9 47.1,22.4 47.5,20.7C47.9,19 48.3,17.1 48.8,15C49.3,13.1 49.7,11.2 50.1,9.5C50.5,7.8 50.9,6.3 51.3,5C51.7,3.5 52.1,2.1 52.5,0.8L56.9,0.8C57.3,2.1 57.7,3.5 58.1,5C58.4,6.3 58.8,7.8 59.3,9.5C59.7,11.2 60.2,13 60.6,15C61.1,17.1 61.5,19 61.9,20.7C62.3,22.4 62.6,23.9 62.9,25.1C63.2,26.6 63.5,27.9 63.8,29L59.1,29C59,28.6 58.9,28.1 58.8,27.6C58.7,27.1 58.6,26.6 58.5,26C58.4,25.4 58.2,24.7 58.1,23.9L51.3,23.9C51.1,24.7 51,25.4 50.9,26C50.8,26.6 50.7,27.1 50.6,27.6C50.5,28.1 50.4,28.6 50.4,29L45.7,29ZM57.3,19.8C56.9,17.9 56.6,16.2 56.3,14.7C56,13.2 55.7,11.8 55.5,10.7C55.2,9.4 54.9,8.2 54.7,7.1C54.5,8.2 54.2,9.4 53.9,10.7C53.7,11.8 53.4,13.2 53.1,14.7C52.8,16.2 52.5,18 52.1,19.8L57.3,19.8Z" style="fill:white;fill-rule:nonzero;"/>
    </g>
    <g transform="matrix(1,0,0,1,0,0.5)">
        <path d="M72.9,29L68.6,29L68.6,0.9C69.1,0.8 69.7,0.7 70.4,0.6C71.1,0.5 71.9,0.5 72.8,0.5C74.4,0.5 75.9,0.7 77.4,1.2C78.8,1.7 80.1,2.3 81.1,3.2C82.2,4.1 83,5.2 83.6,6.4C84.2,7.7 84.5,9.1 84.5,10.8C84.5,12.4 84.1,14 83.4,15.5C82.6,17 81.6,18.2 80.2,19.1L84.6,29L79.7,29L76.2,20.6C75.7,20.8 75.2,20.9 74.6,20.9C74,21 73.5,21 72.8,21L72.8,29L72.9,29ZM80.3,10.6C80.3,9.9 80.2,9.2 79.9,8.5C79.6,7.8 79.2,7.2 78.6,6.6C78,6 77.4,5.6 76.6,5.3C75.8,5 74.9,4.8 73.9,4.8L73.5,4.8L73.1,4.8L73.1,16.8L73.3,16.8C75.7,16.8 77.4,16.2 78.6,15.1C79.7,14 80.3,12.5 80.3,10.6Z" style="fill:white;fill-rule:nonzero;"/>
    </g>
    <g transform="matrix(1,0,0,1,0,0.5)">
        <path d="M103.4,0.7L103.4,4.9L97.6,4.9L97.6,29L93.2,29L93.2,4.9L87.4,4.9L87.4,0.7L103.4,0.7Z" style="fill:white;fill-rule:nonzero;"/>
    </g>
    <g transform="matrix(1,0,0,1,0,0.5)">
        <path d="M121.9,0.7L121.9,4.9L112.3,4.9L112.3,13.7L121.4,13.7L121.4,18L112.3,18L112.3,24.7L121.9,24.7L121.9,29L108,29L108,0.7L121.9,0.7Z" style="fill:white;fill-rule:nonzero;"/>
    </g>
    <g transform="matrix(1,0,0,1,0,0.5)">
        <path d="M131.8,29L127.5,29L127.5,0.9C128,0.8 128.6,0.7 129.3,0.6C130,0.5 130.8,0.5 131.7,0.5C133.3,0.5 134.8,0.7 136.3,1.2C137.7,1.7 139,2.3 140,3.2C141.1,4.1 141.9,5.2 142.5,6.4C143.1,7.7 143.4,9.1 143.4,10.8C143.4,12.4 143,14 142.3,15.5C141.5,17 140.5,18.2 139.1,19.1L143.5,29L138.6,29L135.1,20.6C134.6,20.8 134.1,20.9 133.5,20.9C132.9,21 132.4,21 131.7,21L131.7,29L131.8,29ZM139.2,10.6C139.2,9.9 139.1,9.2 138.8,8.5C138.5,7.8 138.1,7.2 137.5,6.6C136.9,6 136.3,5.6 135.5,5.3C134.7,5 133.8,4.8 132.8,4.8L132.4,4.8L132,4.8L132,16.8L132.2,16.8C134.6,16.8 136.3,16.2 137.5,15.1C138.6,14 139.2,12.5 139.2,10.6Z" style="fill:white;fill-rule:nonzero;"/>
    </g>
    <g transform="matrix(1,0,0,1,0,0.5)">
        <path d="M162.3,0.7L162.3,4.9L156.5,4.9L156.5,29L152.1,29L152.1,4.9L146.3,4.9L146.3,0.7L162.3,0.7Z" style="fill:rgb(0,137,187);fill-rule:nonzero;"/>
    </g>
    <g transform="matrix(1,0,0,1,0,0.5)">
        <path d="M170.9,29L166.6,29L166.6,0.9C167.1,0.8 167.7,0.7 168.4,0.6C169.1,0.5 169.9,0.5 170.8,0.5C172.4,0.5 173.9,0.7 175.4,1.2C176.8,1.7 178.1,2.3 179.1,3.2C180.2,4.1 181,5.2 181.6,6.4C182.2,7.7 182.5,9.1 182.5,10.8C182.5,12.4 182.1,14 181.4,15.5C180.6,17 179.6,18.2 178.2,19.1L182.6,29L177.7,29L174.2,20.6C173.7,20.8 173.2,20.9 172.6,20.9C172,21 171.5,21 170.8,21L170.8,29L170.9,29ZM178.3,10.6C178.3,9.9 178.2,9.2 177.9,8.5C177.6,7.8 177.2,7.2 176.6,6.6C176,6 175.4,5.6 174.6,5.3C173.8,5 172.9,4.8 171.9,4.8L171.5,4.8L171.1,4.8L171.1,16.8L171.3,16.8C173.7,16.8 175.4,16.2 176.6,15.1C177.7,14 178.3,12.5 178.3,10.6Z" style="fill:rgb(0,137,187);fill-rule:nonzero;"/>
    </g>
    <g transform="matrix(1,0,0,1,0,0.5)">
        <path d="M185.4,29C185.6,27.8 185.9,26.5 186.2,25.1C186.5,23.9 186.8,22.4 187.2,20.7C187.6,19 188,17.1 188.5,15C189,13.1 189.4,11.2 189.8,9.5C190.2,7.8 190.6,6.3 191,5C191.4,3.5 191.8,2.1 192.2,0.8L196.6,0.8C197,2.1 197.4,3.5 197.8,5C198.2,6.3 198.5,7.8 199,9.5C199.4,11.2 199.9,13 200.3,15C200.8,17.1 201.2,19 201.6,20.7C202,22.4 202.3,23.9 202.6,25.1C202.9,26.6 203.2,27.9 203.5,29L198.8,29C198.7,28.6 198.6,28.1 198.5,27.6C198.4,27.1 198.3,26.6 198.2,26C198.1,25.4 197.9,24.7 197.8,23.9L191,23.9C190.8,24.7 190.7,25.4 190.6,26C190.5,26.6 190.4,27.1 190.3,27.6C190.2,28.1 190.1,28.6 190.1,29L185.4,29ZM197.1,19.8C196.7,17.9 196.4,16.2 196.1,14.7C195.8,13.2 195.5,11.8 195.3,10.7C195,9.4 194.7,8.2 194.5,7.1C194.3,8.2 194,9.4 193.7,10.7C193.5,11.8 193.2,13.2 192.9,14.7C192.6,16.2 192.3,18 191.9,19.8L197.1,19.8Z" style="fill:rgb(0,137,187);fill-rule:nonzero;"/>
    </g>
    <g transform="matrix(1,0,0,1,0,0.5)">
        <path d="M222,0.7L215.3,29L210,29L203.4,0.7L208.2,0.7L212.7,23.7L217.2,0.7L222,0.7Z" style="fill:rgb(0,137,187);fill-rule:nonzero;"/>
    </g>
    <g transform="matrix(1,0,0,1,0,0.5)">
        <path d="M240,0.7L240,4.9L230.4,4.9L230.4,13.7L239.4,13.7L239.4,18L230.4,18L230.4,24.7L240,24.7L240,29L226.1,29L226.1,0.7L240,0.7Z" style="fill:rgb(0,137,187);fill-rule:nonzero;"/>
    </g>
    <g transform="matrix(1,0,0,1,0,0.5)">
        <path d="M257.5,24.7L257.5,29L244.8,29L244.8,0.7L249.2,0.7L249.2,24.7L257.5,24.7Z" style="fill:rgb(0,137,187);fill-rule:nonzero;"/>
    </g>
    <g transform="matrix(0.256878,0,0,0.256878,69.4384,3.07514)">
        <path d="M581.336,171.296C581.881,173.12 580.846,175.043 579.019,175.589C577.194,176.136 575.27,175.101 574.724,173.275C574.176,171.448 575.214,169.525 577.039,168.978C578.866,168.434 580.788,169.468 581.336,171.296" style="fill:white;fill-rule:nonzero;stroke:white;stroke-width:3.89px;"/>
    </g>
    <g transform="matrix(0.375206,0,0,0.375206,1.4498,-16.9026)">
        <path d="M584.663,179.895L584.187,191.651L576.718,182.32L576.681,182.31C576.127,182.357 575.57,182.381 575.014,182.381C566.155,182.381 558.195,176.455 555.655,167.975C554.111,162.813 554.671,157.355 557.234,152.601C559.797,147.847 564.052,144.377 569.211,142.833C571.097,142.268 573.042,141.983 574.994,141.983C583.853,141.983 591.812,147.905 594.352,156.387C597.138,165.692 592.87,175.459 584.657,179.923L584.663,179.895ZM574.996,146.927C573.522,146.927 572.053,147.143 570.628,147.569C566.732,148.736 563.52,151.355 561.585,154.945C559.649,158.536 559.225,162.659 560.392,166.556C562.309,172.96 568.322,177.434 575.011,177.434C576.485,177.434 577.955,177.217 579.379,176.791C583.274,175.624 586.487,173.005 588.423,169.415C590.358,165.825 590.782,161.701 589.615,157.806C587.698,151.402 581.686,146.927 574.996,146.927" style="fill:white;fill-rule:nonzero;stroke:white;stroke-width:0.8px;"/>
    </g>
    <g transform="matrix(0.375206,0,0,0.375206,1.4498,-16.9026)">
        <path d="M539.362,180.375L521.168,180.375C520.745,180.375 520.401,180.032 520.401,179.607L520.401,144.178C520.401,143.754 520.745,143.411 521.168,143.411L524.712,143.411C525.135,143.411 525.478,143.754 525.478,144.178L525.478,175.633L539.362,175.633C539.785,175.633 540.129,175.976 540.129,176.4L540.129,179.607C540.129,180.032 539.785,180.375 539.362,180.375" style="fill:white;fill-rule:nonzero;stroke:white;stroke-width:0.93px;"/>
    </g>
    <g transform="matrix(0.375206,0,0,0.375206,1.4498,-16.9026)">
        <path d="M549.18,180.375L545.636,180.375C545.212,180.375 544.869,180.032 544.869,179.607L544.869,144.178C544.869,143.754 545.212,143.411 545.636,143.411L549.18,143.411C549.603,143.411 549.947,143.754 549.947,144.178L549.947,179.607C549.947,180.032 549.603,180.375 549.18,180.375" style="fill:white;fill-rule:nonzero;stroke:white;stroke-width:0.8px;"/>
    </g>
    <g transform="matrix(0.375206,0,0,0.375206,1.4498,-16.9026)">
        <path d="M613.243,180.997C611.325,180.997 604.83,180.488 601.821,173.943C600.9,171.945 600.412,169.285 600.412,166.249L600.412,144.178C600.412,143.754 600.756,143.411 601.18,143.411L604.722,143.411C605.144,143.411 605.488,143.754 605.488,144.178L605.488,166.249C605.488,168.851 605.88,171 606.591,172.297C608.015,174.925 610.254,176.256 613.243,176.256C616.234,176.256 618.472,174.925 619.895,172.3C620.607,171.001 620.998,168.853 620.998,166.249L620.998,144.178C620.998,143.754 621.342,143.411 621.765,143.411L625.308,143.411C625.732,143.411 626.076,143.754 626.076,144.178L626.076,166.249C626.076,169.285 625.588,171.945 624.666,173.944C621.658,180.488 615.162,180.997 613.243,180.997" style="fill:white;fill-rule:nonzero;stroke:white;stroke-width:0.93px;"/>
    </g>
    <g transform="matrix(0.375206,0,0,0.375206,1.4498,-16.9026)">
        <path d="M653.224,180.375L633.834,180.375C633.411,180.375 633.067,180.032 633.067,179.607L633.067,144.178C633.067,143.754 633.411,143.411 633.834,143.411L653.224,143.411C653.648,143.411 653.992,143.754 653.992,144.178L653.992,147.387C653.992,147.811 653.648,148.153 653.224,148.153L638.145,148.153L638.145,159.354L652.699,159.354C653.121,159.354 653.465,159.697 653.465,160.121L653.465,163.33C653.465,163.754 653.121,164.098 652.699,164.098L638.145,164.098L638.145,175.633L653.224,175.633C653.648,175.633 653.992,175.976 653.992,176.4L653.992,179.607C653.992,180.032 653.648,180.375 653.224,180.375" style="fill:white;fill-rule:nonzero;stroke:white;stroke-width:0.93px;"/>
    </g>
    <g transform="matrix(0.375206,0,0,0.375206,1.4498,-16.9026)">
        <path d="M669.649,180.997C664.121,180.997 658.107,177.465 657.963,169.71C657.961,169.505 658.04,169.306 658.183,169.159C658.328,169.012 658.525,168.929 658.731,168.929L662.274,168.929C662.685,168.929 663.023,169.253 663.041,169.663C663.216,173.729 665.748,176.256 669.649,176.256C672.778,176.256 676.014,173.91 676.014,169.985C676.014,165.329 671.442,163.977 668.986,163.251L668.123,162.996C664.908,162.059 658.922,160.315 658.922,153.084C658.922,147.215 663.534,142.789 669.649,142.789C675.583,142.789 680.231,147.352 680.231,153.18C680.231,153.603 679.887,153.946 679.463,153.946L675.92,153.946C675.497,153.946 675.153,153.603 675.153,153.18C675.153,150.118 672.632,147.531 669.649,147.531C665.98,147.531 664.001,150.318 664.001,152.94C664.001,156.418 666.747,157.38 671.601,158.78L671.872,158.858C680.194,161.099 681.093,167.272 681.092,169.823C681.092,176.097 676.066,180.997 669.649,180.997" style="fill:white;fill-rule:nonzero;stroke:white;stroke-width:0.93px;"/>
    </g>
    <g transform="matrix(0.375206,0,0,0.375206,1.4498,-16.9026)">
        <path d="M501.604,181.394C490.958,181.394 482.298,172.734 482.298,162.09C482.298,151.446 490.958,142.786 501.604,142.786C506.758,142.786 511.606,144.792 515.25,148.437L515.746,148.931C515.89,149.077 515.971,149.273 515.97,149.478C515.967,149.683 515.885,149.878 515.739,150.022L513.188,152.521C512.888,152.817 512.407,152.813 512.11,152.517L511.625,152.034C508.938,149.347 505.368,147.868 501.571,147.868C493.729,147.868 487.349,154.248 487.349,162.09C487.349,169.932 493.729,176.312 501.571,176.312C505.37,176.312 508.942,174.831 511.627,172.145L512.111,171.661C512.41,171.363 512.89,171.361 513.191,171.655L515.744,174.153C515.89,174.296 515.972,174.493 515.973,174.697C515.975,174.902 515.894,175.099 515.75,175.244L515.255,175.738C511.608,179.385 506.76,181.394 501.604,181.394" style="fill:white;fill-rule:nonzero;stroke:white;stroke-width:0.8px;"/>
    </g>
    <g transform="matrix(1,0,0,1,26.2378,0.0339374)">
        <text x="99.671px" y="48.309px" style="font-family:'DINCondensed-Bold', 'DIN Condensed';font-weight:700;font-stretch:condensed;font-size:14px;fill:white;">powered b<tspan x="145.213px " y="48.309px ">y</tspan></text>
    </g>
</svg>
